<!-- Generated by IcoMoon.io -->
<svg version="1.1" xmlns="http://www.w3.org/2000/svg" width="32" height="32" viewBox="0 0 32 32">
<title>mail</title>
<path d="M28.094 3.823h-24.181c-2.161 0.002-3.911 1.754-3.913 3.915v16.525c0 2.159 1.754 3.915 3.913 3.915h24.175c2.161-0.002 3.913-1.755 3.913-3.917v0-16.516c0-0.003 0-0.006 0-0.009 0-2.159-1.748-3.909-3.906-3.913h-0zM30.219 24.262c0 1.173-0.954 2.127-2.125 2.127h-24.181c-1.174-0.001-2.125-0.953-2.125-2.127 0 0 0 0 0 0v0-16.518c0-1.173 0.954-2.127 2.125-2.127h24.175c1.173 0 2.125 0.954 2.125 2.127v16.518h0.006z"></path>
<path d="M20.181 15.795l7.827-7.019c0.181-0.165 0.294-0.402 0.294-0.665 0-0.231-0.087-0.442-0.231-0.601l0.001 0.001c-0.165-0.181-0.402-0.294-0.665-0.294-0.23 0-0.44 0.087-0.599 0.229l0.001-0.001-10.795 9.685-2.103-1.877c-0.006-0.009-0.013-0.015-0.013-0.021-0.045-0.045-0.093-0.087-0.144-0.126l-0.003-0.002-8.567-7.663c-0.157-0.142-0.367-0.229-0.597-0.229-0.266 0-0.504 0.116-0.668 0.301l-0.001 0.001c-0.142 0.157-0.228 0.366-0.228 0.596 0 0.266 0.117 0.505 0.302 0.669l0.001 0.001 7.919 7.078-7.887 7.381c-0.176 0.164-0.285 0.397-0.285 0.656 0 0.496 0.402 0.897 0.897 0.897 0.237 0 0.452-0.092 0.613-0.242l-0 0 8.006-7.488 2.172 1.939c0.157 0.139 0.364 0.224 0.592 0.224 0.231 0 0.441-0.087 0.6-0.231l-0.001 0.001 2.231-2.001 7.957 7.563c0.16 0.154 0.377 0.249 0.617 0.249 0.256 0 0.488-0.109 0.65-0.282l0-0c0.151-0.16 0.244-0.376 0.244-0.614 0-0.255-0.107-0.485-0.277-0.648l-0-0-7.859-7.465z"></path>
</svg>
