<!-- Generated by IcoMoon.io -->
<svg version="1.1" xmlns="http://www.w3.org/2000/svg" width="32" height="32" viewBox="0 0 32 32">
<title>map</title>
<path fill="#999" d="M15.979 0c-6.474 0.007-11.721 5.253-11.729 11.726v0.001c0 2.972 1.873 7.168 5.564 12.476 1.85 2.639 3.645 4.923 5.55 7.107l-0.085-0.099 0.7 0.789 0.7-0.789c1.82-2.084 3.613-4.368 5.286-6.743l0.177-0.265c3.691-5.308 5.564-9.504 5.564-12.476-0.009-6.473-5.254-11.718-11.726-11.727h-0.001zM20.617 23.119c-1.615 2.299-3.137 4.265-4.741 6.16l0.103-0.125c-1.498-1.766-3.018-3.727-4.451-5.754l-0.178-0.266c-3.42-4.915-5.227-8.862-5.227-11.407 0.007-5.44 4.416-9.849 9.855-9.856h0.001c5.44 0.007 9.849 4.416 9.856 9.855v0.001c0 2.543-1.805 6.483-5.218 11.392z"></path>
<path fill="#999" d="M15.977 4.335c-3.821 0.004-6.918 3.1-6.923 6.92v0c0.004 3.823 3.102 6.92 6.925 6.923h0c3.821-0.005 6.917-3.102 6.921-6.922v-0c-0.005-3.82-3.1-6.916-6.92-6.921h-0zM15.977 16.307c-2.79-0.001-5.051-2.262-5.054-5.052v-0c0.005-2.789 2.267-5.047 5.056-5.047 0 0 0 0 0 0v0c2.787 0.004 5.046 2.262 5.050 5.049v0c-0.004 2.787-2.262 5.046-5.049 5.050h-0z"></path>
</svg>
