<!-- Generated by IcoMoon.io -->
<svg version="1.1" xmlns="http://www.w3.org/2000/svg" width="32" height="32" viewBox="0 0 32 32">
<title>phone</title>
<path fill="#999" d="M31.159 24.687l-6.477-4.32c-0.293-0.196-0.654-0.313-1.042-0.313-0.602 0-1.139 0.282-1.485 0.721l-0.003 0.004-1.888 2.426c-0.149 0.194-0.381 0.318-0.642 0.318-0.143 0-0.278-0.037-0.395-0.103l0.004 0.002-0.361-0.198c-1.188-0.649-2.669-1.455-5.653-4.437-2.98-2.987-3.789-4.467-4.437-5.653l-0.198-0.361c-0.065-0.114-0.104-0.25-0.104-0.396 0-0.261 0.124-0.492 0.315-0.64l0.002-0.001 2.426-1.886c0.443-0.35 0.725-0.887 0.725-1.489 0-0.388-0.117-0.749-0.318-1.050l0.004 0.007-4.32-6.477c-0.342-0.508-0.915-0.838-1.566-0.838-0.358 0-0.692 0.1-0.977 0.273l0.008-0.005-2.709 1.626c-0.841 0.501-1.464 1.293-1.734 2.234l-0.007 0.027c-0.977 3.554-0.243 9.687 8.791 18.722 7.187 7.187 12.538 9.12 16.213 9.12 0.011 0 0.023 0 0.036 0 0.879 0 1.73-0.12 2.537-0.344l-0.066 0.016c0.968-0.277 1.761-0.9 2.252-1.723l0.010-0.017 1.63-2.709c0.168-0.276 0.268-0.61 0.268-0.968 0-0.651-0.331-1.225-0.833-1.562l-0.007-0.004zM30.812 26.675l-1.626 2.709c-0.358 0.614-0.941 1.067-1.626 1.259-3.281 0.902-9.011 0.156-17.685-8.516-8.674-8.674-9.419-14.404-8.518-17.685 0.194-0.687 0.646-1.269 1.261-1.63l2.709-1.623c0.12-0.074 0.266-0.118 0.422-0.118 0.282 0 0.53 0.143 0.677 0.36l0.002 0.003 2.347 3.524 1.969 2.953c0.085 0.127 0.136 0.284 0.136 0.452 0 0.262-0.122 0.495-0.313 0.645l-0.002 0.001-2.423 1.886c-0.448 0.345-0.733 0.88-0.733 1.483 0 0.335 0.088 0.65 0.243 0.922l-0.005-0.009 0.192 0.35c0.683 1.25 1.53 2.805 4.623 5.899s4.646 3.94 5.897 4.621l0.35 0.192c0.263 0.15 0.578 0.239 0.914 0.239 0.602 0 1.137-0.285 1.479-0.727l0.003-0.004 1.886-2.426c0.152-0.192 0.384-0.313 0.645-0.313 0.169 0 0.326 0.051 0.456 0.138l-0.003-0.002 6.477 4.32c0.363 0.241 0.474 0.725 0.247 1.099zM18.133 5.335c5.005 0.005 9.062 4.061 9.067 9.066v0c0 0.295 0.239 0.533 0.533 0.533s0.533-0.239 0.533-0.533v0c-0.005-5.595-4.539-10.129-10.133-10.135h-0.001c-0.295 0-0.533 0.239-0.533 0.533s0.239 0.533 0.533 0.533v0z"></path>
<path fill="#999" d="M18.133 8.535c3.239 0.004 5.863 2.628 5.867 5.866v0c0 0.295 0.239 0.533 0.533 0.533s0.533-0.239 0.533-0.533v0c-0.002-3.829-3.105-6.932-6.933-6.935h-0c-0.295 0-0.533 0.239-0.533 0.533s0.239 0.533 0.533 0.533v0z"></path>
<path fill="#999" d="M18.133 11.735c1.472 0 2.665 1.195 2.667 2.667 0 0.295 0.239 0.533 0.533 0.533s0.533-0.239 0.533-0.533v0c-0.001-2.062-1.672-3.733-3.733-3.735h-0c-0.295 0-0.533 0.239-0.533 0.533s0.239 0.533 0.533 0.533v0z"></path>
</svg>
