<svg aria-hidden="true" style="position: absolute; width: 0; height: 0; overflow: hidden;" version="1.1" xmlns="http://www.w3.org/2000/svg" xmlns:xlink="http://www.w3.org/1999/xlink">
<defs>
<symbol id="icon-vector" viewBox="0 0 19 32">
<path d="M3.631 30.090c-0.18 0.184-0.431 0.298-0.708 0.298-0.003 0-0.006 0-0.009-0h0c-0 0-0.001 0-0.001 0-0.562 0-1.018-0.456-1.018-1.018 0-0.281 0.114-0.536 0.298-0.72v0l12.65-12.65-12.65-12.65c-0.184-0.184-0.298-0.439-0.298-0.72 0-0.562 0.456-1.018 1.018-1.018 0.281 0 0.536 0.114 0.72 0.298l13.366 13.37c0.184 0.184 0.299 0.439 0.299 0.72s-0.114 0.536-0.299 0.72v0l-13.37 13.37z"></path>
</symbol>
</defs>
</svg>
